<svg xmlns="http://www.w3.org/2000/svg" viewBox="0 0 64 32"><path d="M0 27c6.02 0 9.85 2.23 13.05 5h-1.56C8.6 29.68 5.17 28 0 28zM64 27v1c-5.17 0-8.6 1.68-11.49 4h-1.56c3.2-2.77 7.03-5 13.05-5M16.35 27.14c1.76 1.76 3.49 3.48 5.52 4.86h-1.69c-1.65-1.26-3.1-2.71-4.53-4.15C11.61 23.81 7.79 20 0 20v-1c8.21 0 12.35 4.14 16.35 8.14M64 19v1c-7.79 0-11.61 3.81-15.65 7.85-1.43 1.44-2.88 2.89-4.53 4.15h-1.69c2.03-1.38 3.76-3.1 5.52-4.86 4-4 8.14-8.14 16.35-8.14M32 28c-8.21 0-12.35-4.14-16.35-8.15C11.61 15.81 7.79 12 0 12v-1c8.21 0 12.35 4.14 16.35 8.15C20.39 23.19 24.2 27 32 27s11.61-3.81 15.65-7.85c4-4 8.15-8.15 16.35-8.15v1c-7.79 0-11.61 3.81-15.65 7.85-4 4-8.15 8.15-16.35 8.15"/><path d="M32 20c-8.21 0-12.35-4.14-16.35-8.15C11.61 7.81 7.79 4 0 4V3c8.21 0 12.35 4.14 16.35 8.15C20.39 15.19 24.2 19 32 19s11.61-3.81 15.65-7.85C51.65 7.15 55.8 3 64 3v1c-7.79 0-11.61 3.81-15.65 7.85-4 4-8.15 8.15-16.35 8.15"/><path d="M52.51 0c-1.47 1.16-2.8 2.49-4.16 3.85C44.35 7.86 40.21 12 32 12S19.65 7.86 15.65 3.85C14.29 2.49 12.96 1.16 11.49 0h1.56c1.16 1 2.23 2.07 3.3 3.14C20.39 7.18 24.21 11 32 11s11.61-3.82 15.65-7.86C48.72 2.07 49.79 1 50.95 0z"/><path d="M43.82 0C40.86 2.29 37.27 4 32 4s-8.86-1.71-11.82-4h1.69C24.48 1.79 27.61 3 32 3s7.52-1.21 10.13-3z"/></svg>